C:\GBW_MyPrograms\PredSimResults\Vitruvian_man\IG_v35ms_30.mot
version=1
nRows=10
nColumns=35
inDegrees=yes
endheader
                time	         pelvis_tilt	           pelvis_tx	           pelvis_ty	       hip_flexion_r	        knee_angle_r	       ankle_angle_r	         mtp_angle_r	       hip_flexion_l	        knee_angle_l	       ankle_angle_l	         mtp_angle_l	    lumbar_extension	          arm_flex_r	          arm_flex_l	        elbow_flex_r	        elbow_flex_l	hamstrings_r/activation	bifemsh_r/activation	glut_max_r/activation	iliopsoas_r/activation	rect_fem_r/activation	  vasti_r/activation	gastroc_r/activation	 soleus_r/activation	tib_ant_r/activation	hamstrings_l/activation	bifemsh_l/activation	glut_max_l/activation	iliopsoas_l/activation	rect_fem_l/activation	  vasti_l/activation	gastroc_l/activation	 soleus_l/activation	tib_ant_l/activation	
          0.78423870	         -6.40943322	          2.72617353	          0.99376106	          6.39626245	        -49.86094778	        -20.36722812	         10.05732845	         31.14860265	        -22.00954467	         -3.54288987	          0.48853032	        -10.20982256	         17.84298309	         17.84297449	         99.28106946	         99.28107224	          0.05000372	          0.77893683	          0.05000094	          0.77585373	          0.98858735	          0.05000054	          0.19382962	          0.09156742	          0.31550535	          0.83202757	          0.15836730	          0.68967195	          0.05504402	          0.05554703	          0.05000279	          0.05909308	          0.05909336	          0.42468979	
          0.78946696	         -6.51704353	          2.74489230	          0.99108928	          7.48012818	        -51.28834945	        -19.67864179	          9.39877343	         30.94128090	        -22.64751539	         -3.38215315	          0.36558497	         -9.98946851	         17.33630997	         17.33630125	         97.92860363	         97.92860721	          0.05000343	          0.81020175	          0.05000069	          0.71366681	          0.99153660	          0.05000047	          0.17829585	          0.08422814	          0.31957529	          0.76533796	          0.14567458	          0.76987962	          0.05063610	          0.05109512	          0.05000119	          0.05435663	          0.05435686	          0.51872732	
          0.79469522	         -6.65210099	          2.76368412	          0.98804040	          8.65678935	        -52.74988039	        -18.98584558	          8.78134868	         30.74512656	        -23.57832030	         -2.59960426	          0.10361045	         -9.70657893	         16.93331057	         16.93330177	         96.71719641	         96.71720081	          0.05000503	          0.83315303	          0.05000066	          0.65646431	          0.99372309	          0.05000044	          0.16400689	          0.07747714	          0.32528591	          0.70399369	          0.13399875	          0.82935697	          0.05000585	          0.05000048	          0.28710134	          0.05000013	          0.05000004	          0.47714981	
          0.79992348	         -6.81408383	          2.78255374	          0.98466557	          9.91770033	        -54.23064739	        -18.28496264	          8.20172730	         30.51103906	        -24.74681434	         -1.46235633	         -0.48439284	         -9.36276278	         16.63264299	         16.63263416	         95.65301252	         95.65301775	          0.05000309	          0.85500659	          0.05000066	          0.60384674	          0.99534187	          0.05000044	          0.15086314	          0.07126727	          0.31936064	          0.64756635	          0.12325857	          0.87346168	          0.05000206	          0.05436115	          0.47135900	          0.23076913	          0.27551757	          0.43890477	
          0.80515174	         -7.00225878	          2.80146363	          0.98107437	         11.25892081	        -55.71301243	        -17.58946047	          7.65725884	         30.19042501	        -26.01831403	          0.03317118	         -0.75020873	         -8.96761024	         16.43484622	         16.43483741	         94.73628873	         94.73629479	          0.06820379	          0.86484482	          0.05000068	          0.55544663	          0.96135021	          0.05000043	          0.13877268	          0.06555516	          0.32858506	          0.59566184	          0.11337930	          0.90616695	          0.05000160	          0.05000482	          0.60799296	          0.21227542	          0.25343541	          0.40372521	
          0.81037999	         -7.21768422	          2.82034325	          0.97740538	         12.68249629	        -57.18297849	        -16.89702704	          7.14226260	         29.75297542	        -27.11679110	          1.87544472	         -0.61877278	         -8.53379252	         16.33986074	         16.33985198	         93.96671470	         93.96672160	          0.07616044	          0.88002954	          0.05000105	          0.51092597	          0.91256961	          0.05000048	          0.12765116	          0.06030093	          0.33146394	          0.54791765	          0.10429189	          0.93041902	          0.05000078	          0.05000100	          0.70931217	          0.20217708	          0.31261411	          0.37136541	
          0.81560825	         -7.46268601	          2.83908854	          0.97379996	         14.19637716	        -58.63271359	        -16.18800042	          6.65481587	         29.25312340	        -28.04800130	          3.68194770	         -0.15982498	         -8.07656087	         16.34885303	         16.34884432	         93.34467818	         93.34468591	          0.07005648	          0.91102475	          0.05000088	          0.46997385	          0.86877292	          0.05000047	          0.11742099	          0.05546792	          0.33377313	          0.50400032	          0.09593285	          0.94840236	          0.05000091	          0.05000144	          0.78444413	          0.27538331	          0.41056177	          0.34159934	
          0.82083651	         -7.73659113	          2.85761517	          0.97038039	         15.80208961	        -60.05156306	        -15.44861280	          6.19488111	         28.75914208	        -28.90133193	          5.32968092	          0.56967249	         -7.61113825	         16.46209502	         16.46208637	         92.87013001	         92.87013857	          0.06444156	          0.93401581	          0.05000090	          0.43230427	          0.79914359	          0.05000046	          0.10801074	          0.05102257	          0.33354849	          0.46360313	          0.08824383	          0.96173411	          0.05000092	          0.05000169	          0.84015726	          0.33038721	          0.49943703	          0.31421912	
          0.82606477	         -8.03822707	          2.87588863	          0.96722925	         17.49394864	        -61.42526753	        -14.67529594	          5.76390483	         28.30796663	        -29.73046253	          6.76198755	          1.51632617	         -7.14514933	         16.67957978	         16.67957118	         92.54297787	         92.54298726	          0.05927667	          0.95106560	          0.05000067	          0.39765415	          0.73509094	          0.05000044	          0.09935469	          0.05000166	          0.33450565	          0.42644392	          0.08117112	          0.96992522	          0.05000102	          0.05000199	          0.88147062	          0.38769063	          0.60455133	          0.28903351	
          0.83129303	         -8.36538266	          2.89392523	          0.96438969	         19.25923587	        -62.73775867	        -13.89717214	          5.36462162	         27.89358611	        -30.52821478	          7.96264970	          2.63691377	         -6.67925818	         17.00146201	         17.00145346	         92.36331461	         92.36332483	          0.05452582	          0.96370668	          0.05000064	          0.36578157	          0.67617169	          0.05000044	          0.09139240	          0.05000190	          0.33569948	          0.39226318	          0.07466534	          0.96823168	          0.05000104	          0.05000226	          0.91210600	          0.44090915	          0.70675887	          0.26586661	
